<svg id="visual" viewBox="0 0 960 300" width="960" height="300" xmlns="http://www.w3.org/2000/svg" xmlns:xlink="http://www.w3.org/1999/xlink" version="1.1"><rect x="0" y="0" width="960" height="300" fill="#ffffff"></rect><path d="M0 200L22.8 201.2C45.7 202.3 91.3 204.7 137 204.2C182.7 203.7 228.3 200.3 274 196.8C319.7 193.3 365.3 189.7 411.2 193.7C457 197.7 503 209.3 548.8 208C594.7 206.7 640.3 192.3 686 185.2C731.7 178 777.3 178 823 179.8C868.7 181.7 914.3 185.3 937.2 187.2L960 189L960 301L937.2 301C914.3 301 868.7 301 823 301C777.3 301 731.7 301 686 301C640.3 301 594.7 301 548.8 301C503 301 457 301 411.2 301C365.3 301 319.7 301 274 301C228.3 301 182.7 301 137 301C91.3 301 45.7 301 22.8 301L0 301Z" fill="#69b4fa"></path><path d="M0 216L22.8 215.8C45.7 215.7 91.3 215.3 137 215C182.7 214.7 228.3 214.3 274 212C319.7 209.7 365.3 205.3 411.2 208.5C457 211.7 503 222.3 548.8 225.5C594.7 228.7 640.3 224.3 686 223.3C731.7 222.3 777.3 224.7 823 223.3C868.7 222 914.3 217 937.2 214.5L960 212L960 301L937.2 301C914.3 301 868.7 301 823 301C777.3 301 731.7 301 686 301C640.3 301 594.7 301 548.8 301C503 301 457 301 411.2 301C365.3 301 319.7 301 274 301C228.3 301 182.7 301 137 301C91.3 301 45.7 301 22.8 301L0 301Z" fill="#6d9efc"></path><path d="M0 219L22.8 219.7C45.7 220.3 91.3 221.7 137 225.7C182.7 229.7 228.3 236.3 274 238.5C319.7 240.7 365.3 238.3 411.2 237.3C457 236.3 503 236.7 548.8 236.8C594.7 237 640.3 237 686 234.8C731.7 232.7 777.3 228.3 823 229.5C868.7 230.7 914.3 237.3 937.2 240.7L960 244L960 301L937.2 301C914.3 301 868.7 301 823 301C777.3 301 731.7 301 686 301C640.3 301 594.7 301 548.8 301C503 301 457 301 411.2 301C365.3 301 319.7 301 274 301C228.3 301 182.7 301 137 301C91.3 301 45.7 301 22.8 301L0 301Z" fill="#8783f5"></path><path d="M0 256L22.8 253.3C45.7 250.7 91.3 245.3 137 246.2C182.7 247 228.3 254 274 256.2C319.7 258.3 365.3 255.7 411.2 256.7C457 257.7 503 262.3 548.8 264C594.7 265.7 640.3 264.3 686 261C731.7 257.7 777.3 252.3 823 250.5C868.7 248.7 914.3 250.3 937.2 251.2L960 252L960 301L937.2 301C914.3 301 868.7 301 823 301C777.3 301 731.7 301 686 301C640.3 301 594.7 301 548.8 301C503 301 457 301 411.2 301C365.3 301 319.7 301 274 301C228.3 301 182.7 301 137 301C91.3 301 45.7 301 22.8 301L0 301Z" fill="#a960e0"></path><path d="M0 267L22.8 268.5C45.7 270 91.3 273 137 272.3C182.7 271.7 228.3 267.3 274 267.3C319.7 267.3 365.3 271.7 411.2 272.8C457 274 503 272 548.8 270.3C594.7 268.7 640.3 267.3 686 269.8C731.7 272.3 777.3 278.7 823 281.5C868.7 284.3 914.3 283.7 937.2 283.3L960 283L960 301L937.2 301C914.3 301 868.7 301 823 301C777.3 301 731.7 301 686 301C640.3 301 594.7 301 548.8 301C503 301 457 301 411.2 301C365.3 301 319.7 301 274 301C228.3 301 182.7 301 137 301C91.3 301 45.7 301 22.8 301L0 301Z" fill="#c724bd"></path></svg>