<svg id="visual" viewBox="0 0 960 300" width="960" height="300" xmlns="http://www.w3.org/2000/svg" xmlns:xlink="http://www.w3.org/1999/xlink" version="1.1"><rect x="0" y="0" width="960" height="300" fill="#ffffff"></rect><path d="M0 179L137 196L274 212L411 207L549 185L686 175L823 217L960 184L960 301L823 301L686 301L549 301L411 301L274 301L137 301L0 301Z" fill="#6874e8"></path><path d="M0 227L137 239L274 220L411 228L549 214L686 225L823 213L960 205L960 301L823 301L686 301L549 301L411 301L274 301L137 301L0 301Z" fill="#615fc1"></path><path d="M0 250L137 246L274 233L411 235L549 220L686 220L823 220L960 241L960 301L823 301L686 301L549 301L411 301L274 301L137 301L0 301Z" fill="#564b9c"></path><path d="M0 254L137 263L274 267L411 248L549 240L686 245L823 253L960 257L960 301L823 301L686 301L549 301L411 301L274 301L137 301L0 301Z" fill="#493879"></path><path d="M0 264L137 275L274 270L411 267L549 284L686 266L823 281L960 284L960 301L823 301L686 301L549 301L411 301L274 301L137 301L0 301Z" fill="#392759"></path></svg>