<svg id="visual" viewBox="0 0 960 300" width="960" height="300" xmlns="http://www.w3.org/2000/svg" xmlns:xlink="http://www.w3.org/1999/xlink" version="1.1"><rect x="0" y="0" width="960" height="300" fill="#392759"></rect><path d="M0 255L8 251.7C16 248.3 32 241.7 48 242.5C64 243.3 80 251.7 96 245.8C112 240 128 220 144 212.5C160 205 176 210 192 207.7C208 205.3 224 195.7 240 201.7C256 207.7 272 229.3 288 236.5C304 243.7 320 236.3 336 233.2C352 230 368 231 384 231.3C400 231.7 416 231.3 432 236.2C448 241 464 251 480 249.8C496 248.7 512 236.3 528 236C544 235.7 560 247.3 576 244.2C592 241 608 223 624 213.8C640 204.7 656 204.3 672 213.2C688 222 704 240 720 240.7C736 241.3 752 224.7 768 215.5C784 206.3 800 204.7 816 210.2C832 215.7 848 228.3 864 226.7C880 225 896 209 912 205.5C928 202 944 211 952 215.5L960 220L960 301L952 301C944 301 928 301 912 301C896 301 880 301 864 301C848 301 832 301 816 301C800 301 784 301 768 301C752 301 736 301 720 301C704 301 688 301 672 301C656 301 640 301 624 301C608 301 592 301 576 301C560 301 544 301 528 301C512 301 496 301 480 301C464 301 448 301 432 301C416 301 400 301 384 301C368 301 352 301 336 301C320 301 304 301 288 301C272 301 256 301 240 301C224 301 208 301 192 301C176 301 160 301 144 301C128 301 112 301 96 301C80 301 64 301 48 301C32 301 16 301 8 301L0 301Z" fill="#F7ACCF" stroke-linecap="round" stroke-linejoin="miter"></path></svg>